<svg width="48" height="48" viewBox="0 0 48 48" fill="none" xmlns="http://www.w3.org/2000/svg">
<path d="M28.7005 4H19.3005C17.2205 4 15.5205 5.68 15.5205 7.76V9.64C15.5205 11.72 17.2005 13.4 19.2805 13.4H28.7005C30.7805 13.4 32.4605 11.72 32.4605 9.64V7.76C32.4805 5.68 30.7805 4 28.7005 4Z" fill="#929292"/>
<path d="M34.4801 9.63996C34.4801 12.82 31.8801 15.42 28.7001 15.42H19.3001C16.1201 15.42 13.5201 12.82 13.5201 9.63996C13.5201 8.51996 12.3201 7.81996 11.3201 8.33996C8.50008 9.83996 6.58008 12.82 6.58008 16.24V35.06C6.58008 39.98 10.6001 44 15.5201 44H32.4801C37.4001 44 41.4201 39.98 41.4201 35.06V16.24C41.4201 12.82 39.5001 9.83996 36.6801 8.33996C35.6801 7.81996 34.4801 8.51996 34.4801 9.63996ZM30.6801 25.46L22.6801 33.46C22.3801 33.76 22.0001 33.9 21.6201 33.9C21.2401 33.9 20.8601 33.76 20.5601 33.46L17.5601 30.46C16.9801 29.88 16.9801 28.92 17.5601 28.34C18.1401 27.76 19.1001 27.76 19.6801 28.34L21.6201 30.28L28.5601 23.34C29.1401 22.76 30.1001 22.76 30.6801 23.34C31.2601 23.92 31.2601 24.88 30.6801 25.46Z" fill="#929292"/>
</svg>
